<?xml version="1.0" standalone="no"?>
<!DOCTYPE svg PUBLIC "-//W3C//DTD SVG 20010904//EN"
 "http://www.w3.org/TR/2001/REC-SVG-20010904/DTD/svg10.dtd">
<svg version="1.0" xmlns="http://www.w3.org/2000/svg"
 width="256.000000pt" height="256.000000pt" viewBox="0 0 256.000000 256.000000"
 preserveAspectRatio="xMidYMid meet">
<metadata>

</metadata>
<g transform="translate(0.000000,256.000000) scale(0.100000,-0.100000)"
fill="#f79925" stroke="none">
<path d="M1233 1998 c-5 -7 -18 -47 -28 -88 -10 -41 -21 -79 -26 -84 -4 -5
-56 3 -119 19 -131 32 -140 29 -143 -51 l-2 -49 49 -16 c28 -8 57 -26 67 -40
18 -23 16 -31 -51 -304 -38 -154 -74 -291 -80 -303 -10 -23 -14 -24 -79 -17
l-68 7 -22 -54 c-12 -30 -19 -61 -16 -70 4 -11 39 -24 98 -39 51 -12 102 -26
114 -30 l21 -8 -19 -73 c-26 -103 -25 -126 8 -139 15 -5 40 -9 57 -7 29 3 31
6 52 91 12 49 24 90 27 93 2 3 25 -1 51 -8 40 -11 46 -16 42 -33 -33 -124 -39
-165 -27 -179 15 -18 89 -32 103 -18 5 5 20 50 32 98 15 57 28 88 36 86 6 -1
53 -5 104 -9 164 -10 256 36 311 159 54 119 35 227 -52 294 l-39 30 47 26 c62
35 99 106 99 190 0 105 -46 163 -176 225 l-71 34 19 80 c25 106 22 121 -25
136 -52 17 -72 5 -86 -54 -7 -26 -17 -65 -22 -86 l-10 -39 -42 7 c-23 4 -46
10 -50 15 -4 4 2 46 14 94 19 75 20 89 8 101 -21 21 -93 30 -106 13z m164
-390 c117 -38 162 -102 129 -182 -27 -65 -109 -82 -245 -51 l-68 16 31 125 31
125 30 -7 c16 -3 58 -15 92 -26z m-114 -368 c96 -27 151 -56 188 -97 27 -32
31 -42 26 -80 -12 -108 -121 -137 -319 -88 l-65 17 24 96 c43 173 43 172 61
172 9 0 48 -9 85 -20z"/>
<path d="M1995 1372 c-82 -334 -151 -615 -153 -624 -3 -13 9 -21 53 -33 31 -9
59 -14 62 -11 3 3 49 182 103 397 l98 393 18 -82 c21 -90 19 -88 97 -76 20 4
37 12 37 19 0 11 -133 563 -146 608 -3 9 -8 17 -12 17 -4 0 -74 -274 -157
-608z"/>
<path d="M504 1463 l-98 -398 -16 70 c-25 109 -20 104 -82 92 -29 -5 -55 -11
-56 -13 -7 -5 150 -624 158 -624 7 0 310 1198 310 1227 0 10 -79 43 -106 43
-8 0 -47 -141 -110 -397z"/>
</g>
</svg>
